Coordinates
version=1
nRows=7
nColumns=40
inDegrees=yes

Units are S.I. units (second, meters, Newtons, ...)
Angles are in degrees.

endheader
time	pelvis_tilt	pelvis_list	pelvis_rotation	pelvis_tx	pelvis_ty	pelvis_tz	hip_flexion_r	hip_adduction_r	hip_rotation_r	knee_angle_r	knee_angle_r_beta	ankle_angle_r	subtalar_angle_r	mtp_angle_r	hip_flexion_l	hip_adduction_l	hip_rotation_l	knee_angle_l	knee_angle_l_beta	ankle_angle_l	subtalar_angle_l	mtp_angle_l	lumbar_extension	lumbar_bending	lumbar_rotation	arm_flex_r	arm_add_r	arm_rot_r	elbow_flex_r	pro_sup_r	wrist_flex_r	wrist_dev_r	arm_flex_l	arm_add_l	arm_rot_l	elbow_flex_l	pro_sup_l	wrist_flex_l	wrist_dev_l
     21.86500000	     -3.42729851	     -6.81130788	      3.05012826	      1.03628386	      0.93124890	      0.51017674	      8.35748857	      5.96781824	    -19.31301276	     12.16287712	     12.16287712	     10.70380534	      8.92298979	     -5.65617109	     35.18951075	    -15.17035023	      0.47773202	     41.24459334	     41.24459334	      9.23120864	    -16.49069211	     13.32798051	    -13.41900455	      8.79532790	      4.71676014	     29.26256192	    -17.09625704	      3.77295546	     46.91253511	     45.38940112	      0.00000000	      0.00000000	      0.17253838	     -8.71856932	     -0.57346857	     44.08557821	     47.12420733	      0.00000000	      0.00000000
     21.87657143	     -3.40497463	     -7.04354733	      3.12612609	      1.03530760	      0.93093658	      0.51009109	      7.54535789	      6.33818045	    -19.43799297	     11.58847582	     11.58847582	     10.93366722	      9.34486579	     -5.74687755	     35.41508617	    -15.14444041	      0.54533833	     37.71613280	     37.71613280	      8.69027311	    -15.43624055	     13.38072849	    -13.48095280	      9.07134907	      4.33927994	     31.61335026	    -16.63806521	      3.99409751	     49.20946310	     45.31075617	      0.00000000	      0.00000000	     -1.33908192	     -8.60936662	     -0.64571139	     41.50712789	     47.08102278	      0.00000000	      0.00000000
     21.88814286	     -3.39014814	     -7.22833742	      3.13197896	      1.03455214	      0.93056484	      0.50999640	      6.72725029	      6.65762559	    -19.53810568	     11.03097480	     11.03097480	     11.19232458	      9.79680167	     -5.86503641	     35.49197991	    -15.13646311	      0.36803340	     34.16226539	     34.16226539	      8.18323036	    -14.07108264	     13.24511220	    -13.45793009	      9.22232209	      4.22816041	     33.70095577	    -16.35271440	      4.32656192	     51.75715028	     45.21886346	      0.00000000	      0.00000000	     -2.61714307	     -8.39378230	     -0.81797435	     38.86875693	     47.05149827	      0.00000000	      0.00000000
     21.89971429	     -3.45534586	     -7.33115234	      3.08494733	      1.03377400	      0.93013363	      0.50976986	      6.01122779	      6.86498311	    -19.46613295	     10.51206734	     10.51206734	     11.44236901	     10.24585707	     -5.95842360	     35.53576350	    -15.04784331	      0.09473365	     30.66160924	     30.66160924	      7.74204622	    -12.44032550	     13.26749172	    -13.49101698	      9.32345972	      4.22119816	     35.61426250	    -16.05284257	      4.55227622	     54.25407224	     45.13392124	      0.00000000	      0.00000000	     -3.96423748	     -8.22173407	     -0.93345264	     36.72032262	     47.02260502	      0.00000000	      0.00000000
     21.91128571	     -3.68737207	     -7.57510895	      3.02764355	      1.03294921	      0.92928403	      0.50946781	      5.59916462	      7.17454154	    -19.43139696	     10.22423971	     10.22423971	     11.73975171	     10.47053153	     -6.07657814	     35.83401819	    -15.04773722	     -0.08703040	     27.45748150	     27.45748150	      7.36100196	    -10.87728916	     13.68515534	    -13.21141644	      9.57150508	      4.55118098	     37.63679289	    -15.98549117	      4.47945389	     55.86814187	     45.09173965	      0.00000000	      0.00000000	     -5.34820660	     -7.99099862	     -0.90198045	     35.61857452	     46.98955985	      0.00000000	      0.00000000
     21.92285714	     -3.58275247	     -7.68797374	      2.98995193	      1.03277552	      0.92900376	      0.50908487	      4.46375595	      7.45299324	    -19.48243990	      9.32866144	      9.32866144	     11.93845462	     11.25608642	     -6.08466191	     35.55134727	    -15.04042933	     -0.75795407	     24.33421446	     24.33421446	      6.77933122	     -8.90478538	     12.83550850	    -13.41874866	      9.64217637	      4.85345548	     38.08569517	    -16.43838111	      5.13102686	     62.41434212	     44.87241013	      0.00000000	      0.00000000	     -5.55077689	     -7.55722596	     -1.41626827	     31.25718141	     46.97970207	      0.00000000	      0.00000000
     21.93442857	     -3.65429932	     -7.74445196	      2.89442673	      1.03245445	      0.92841460	      0.50860130	      3.73965904	      7.59088704	    -19.32966829	      8.86871622	      8.86871622	     12.24675333	     11.55953886	     -6.10955852	     35.46098448	    -14.90403281	     -1.32802935	     21.60204196	     21.60204196	      6.54912031	     -7.33786269	     13.39623410	    -13.31758318	      9.63335725	      4.57214486	     39.99786673	    -15.54628115	      5.01519903	     64.52466630	     44.81910517	      0.00000000	      0.00000000	     -7.15778482	     -7.52447713	     -1.33130492	     30.20071992	     46.92991505	      0.00000000	      0.00000000
